HIERARCHY
ROOT Hips
{
	OFFSET -3.958830 18.904000 13.208200
	CHANNELS 6 Xposition Yposition Zposition Zrotation Yrotation Xrotation 
	JOINT LHipJoint
	{
		OFFSET 0.000000 0.000000 0.000000
		CHANNELS 3 Zrotation Yrotation Xrotation
		JOINT LeftUpLeg
		{
			OFFSET 1.800000 -1.400000 0.085000
			CHANNELS 3 Zrotation Yrotation Xrotation
			JOINT LeftLeg
			{
				OFFSET 2.215000 -6.000000 0.000000
				CHANNELS 3 Zrotation Yrotation Xrotation
				JOINT LeftFoot
				{
					OFFSET 2.500000 -6.900000 0.000000
					CHANNELS 3 Zrotation Yrotation Xrotation
					JOINT LeftToeBase
					{
						OFFSET 0.200000 -0.500000 1.950000
						CHANNELS 3 Zrotation Yrotation Xrotation
						End Site
						{
							OFFSET 0.000000 0.000000 0.000000
						}
					}
				}
			}
		}
	}
	JOINT RHipJoint
	{
		OFFSET 0.000000 0.000000 0.000000
		CHANNELS 3 Zrotation Yrotation Xrotation
		JOINT RightUpLeg
		{
			OFFSET -1.800000 -1.400000 0.085000
			CHANNELS 3 Zrotation Yrotation Xrotation
			JOINT RightLeg
			{
				OFFSET -2.215000 -6.000000 0.000000
				CHANNELS 3 Zrotation Yrotation Xrotation
				JOINT RightFoot
				{
					OFFSET -2.500000 -6.900000 0.000000
					CHANNELS 3 Zrotation Yrotation Xrotation
					JOINT RightToeBase
					{
						OFFSET -0.200000 -0.500000 1.950000
						CHANNELS 3 Zrotation Yrotation Xrotation
						End Site
						{
							OFFSET 0.000000 0.000000 0.000000
						}
					}
				}
			}
		}
	}
	JOINT LowerBack
	{
		OFFSET 0.000000 0.000000 0.000000
		CHANNELS 3 Zrotation Yrotation Xrotation
		JOINT Spine
		{
			OFFSET -0.087000 1.940000 -0.288900
			CHANNELS 3 Zrotation Yrotation Xrotation
			JOINT Spine1
			{
				OFFSET 0.000000 1.950000 0.060000
				CHANNELS 3 Zrotation Yrotation Xrotation
				JOINT Neck
				{
					OFFSET 0.000000 0.000000 0.000000
					CHANNELS 3 Zrotation Yrotation Xrotation
					JOINT Neck1
					{
						OFFSET 0.000000 1.600000 0.340000
						CHANNELS 3 Zrotation Yrotation Xrotation
						JOINT Head
						{
							OFFSET 0.000000 1.667000 -0.240000
							CHANNELS 3 Zrotation Yrotation Xrotation
							End Site
							{
								OFFSET 0.000000 0.000000 0.000000
							}
						}
					}
				}
				JOINT LeftShoulder
				{
					OFFSET 0.000000 0.000000 0.000000
					CHANNELS 3 Zrotation Yrotation Xrotation
					JOINT LeftArm
					{
						OFFSET 2.700000 1.550000 -0.730000
						CHANNELS 3 Zrotation Yrotation Xrotation
						JOINT LeftForeArm
						{
							OFFSET 5.450000 0.000000 0.000000
							CHANNELS 3 Zrotation Yrotation Xrotation
							JOINT LeftHand
							{
								OFFSET 3.450000 0.000000 0.000000
								CHANNELS 3 Zrotation Yrotation Xrotation
								JOINT LeftHandIndex1
								{
									OFFSET 0.750000 0.000000 0.000000
									CHANNELS 3 Zrotation Yrotation Xrotation
									End Site
									{
										OFFSET 0.000000 0.000000 0.000000
									}
								}
							}
						}
					}
				}
				JOINT RightShoulder
				{
					OFFSET 0.000000 0.000000 0.000000
					CHANNELS 3 Zrotation Yrotation Xrotation
					JOINT RightArm
					{
						OFFSET -2.700000 1.550000 -0.730000
						CHANNELS 3 Zrotation Yrotation Xrotation
						JOINT RightForeArm
						{
							OFFSET -5.450000 0.000000 0.000000
							CHANNELS 3 Zrotation Yrotation Xrotation
							JOINT RightHand
							{
								OFFSET -3.450000 0.000000 0.000000
								CHANNELS 3 Zrotation Yrotation Xrotation
								JOINT RightHandIndex1
								{
									OFFSET -0.750000 0.000000 0.000000
									CHANNELS 3 Zrotation Yrotation Xrotation
									End Site
									{
										OFFSET 0.000000 0.000000 0.000000
									}
								}
							}
						}
					}
				}
			}
		}
	}
}
MOTION
Frames: 4
Frame Time: 0.016667
1.363080 19.533320 -4.067260 1.582971 3.569413 -53.809058 -22.001623 19.663370 1.711799 -6.111272 11.416843 28.451067 22.188043 1.277485 39.424914 2.886558 9.339272 1.121346 -2.424090 -0.911460 -2.419210 13.537276 0.657215 0.510149 -3.880796 -0.846447 53.680329 21.416122 -12.848187 10.125340 -1.130119 -8.766690 -0.879508 -0.985000 1.216670 0.764010 13.465580 -37.023727 -14.891604 -23.117501 32.521582 67.036112 72.565549 27.820946 62.628290 2.773736 -33.461429 -4.545727 -45.536340 -23.304691 11.998704 -7.493120 -33.783970 -21.208210 79.841280 -9.522736 53.325120 34.513631 -86.252291 99.466838 -147.068193 -76.484557 -6.485900 7.031943 -12.416160 -0.984330 -0.052970 0.539950 -0.666890 -75.063454 25.133588 18.757644 -27.788637 -37.929613 -5.103079 -82.456399 -4.976745 10.674559 6.717855 -0.691267 0.481320 0.137010 1.618750 2.119400 
1.406090 19.601590 -4.030540 7.498589 -1.770010 -49.276161 -27.319874 25.092668 1.032489 -4.593582 11.386323 19.878334 23.343907 1.496780 39.014664 2.975216 9.692559 1.114698 -2.414230 -0.944120 -2.257990 9.790348 6.867117 -0.270874 -1.390181 1.006635 51.096424 22.182142 -12.074964 10.476959 -0.884920 -7.816834 -0.661356 -1.044330 1.107250 0.839820 26.293032 -49.077959 -22.586379 -36.036457 65.480324 49.174577 82.657377 39.444237 54.104633 10.724302 -28.030342 -15.302789 -32.606054 -12.875764 16.626411 -19.819700 -22.644590 -10.405440 86.550789 15.236422 63.273285 145.589733 -70.087197 -59.005829 -105.712313 -1.984035 -19.406735 20.233834 -7.162708 -1.004700 0.047200 0.573470 -0.714570 -67.783531 7.907661 21.365481 -23.089275 -24.517093 -5.360546 -78.791553 -3.758598 7.531855 4.738530 -0.648062 0.516370 -0.027890 1.561030 1.995590 
1.481590 19.700050 -3.913150 1.824203 -4.619627 -38.636462 -27.673614 23.069450 -0.778437 -2.896764 6.921613 10.846311 23.020400 1.421381 41.522411 3.094709 9.534425 1.245519 -2.579360 -1.229660 -2.171240 9.749556 7.199631 -2.077563 1.056779 -1.538243 40.210456 20.706551 -12.020541 13.312972 -0.822818 -7.018195 -0.200755 -1.373640 0.956690 0.740990 26.228034 -48.478857 -15.135748 -52.134357 86.520125 33.050620 54.040758 80.875621 23.867121 19.260666 -13.721620 -52.514198 -17.605311 -4.307422 19.803044 -28.395720 -9.736170 -1.176000 48.855173 74.143240 22.226752 164.637502 -51.063256 11.707503 -106.235026 -34.866511 -28.782975 28.518869 -20.027318 -0.843660 -0.055300 0.675490 -0.739760 -57.402353 -28.852092 16.836550 -17.570202 -23.014666 4.160308 -80.544013 12.357064 1.742077 4.302165 0.828075 0.497760 -0.103810 1.473240 1.900000 
1.530060 19.765320 -3.842970 -7.085220 -3.425866 -32.905228 -23.478784 22.091924 0.785590 0.063660 2.293302 3.978960 21.341365 0.852330 43.595762 3.123524 8.745056 1.289363 -2.573730 -1.095980 -2.272070 12.711646 2.864306 -0.395712 3.265961 -3.751921 29.639060 19.164105 -12.080181 18.091945 -0.775814 -6.461019 0.304717 -1.464740 0.864020 0.749880 16.075598 -38.410090 -16.913988 -71.482125 38.348889 53.561596 41.895015 51.495125 -15.275288 26.650385 -16.438493 -13.067786 -28.159607 0.799244 28.219836 -30.351830 -4.834770 0.419560 -18.016043 44.000373 -15.549704 132.534804 3.300147 11.455773 -78.476947 -75.462675 -35.908087 43.250128 -44.628844 -0.918860 -0.131400 0.804380 -0.653800 -47.404701 18.794966 10.354424 -11.912897 1.410043 -19.703737 -79.274930 -8.540553 -1.627841 4.992672 -1.790255 0.688530 -0.191580 1.370140 2.031480 
